PathFileType	4	(X/Y/Z)	Run_500 03
DataRate	CameraRate	NumFrames	NumMarkers	Units	OrigDataRate	OrigDataStartFrame	OrigNumFrames
100	100	4	45	mm	100	8	137
Frame#	Time	RASI			LPSI			RPSI			RTH1			RTH2			RTH3			LTH1			LTH2			LTH3			RTB1			RTB2			RTB3			RLMAL			RMMAL			LTB1			LTB2			LTB3			RCAL			RTOE			RMT5			LCAL			LTOE			LMT5			LACR			RACR			CLAV			C7			LPSH			RUA1			RUA2			RUA3			RLEL			RMEL			LUA1			LUA2			LUA3			LLEL			LMEL			RFAsuperior			RFAradius			RFAulna			LFAsuperior			LFAradius			LFAulna			LASI		
		X1	Y1	Z1	X2	Y2	Z2	X3	Y3	Z3	X4	Y4	Z4	X5	Y5	Z5	X6	Y6	Z6	X7	Y7	Z7	X8	Y8	Z8	X9	Y9	Z9	X10	Y10	Z10	X11	Y11	Z11	X12	Y12	Z12	X13	Y13	Z13	X14	Y14	Z14	X15	Y15	Z15	X16	Y16	Z16	X17	Y17	Z17	X18	Y18	Z18	X19	Y19	Z19	X20	Y20	Z20	X21	Y21	Z21	X22	Y22	Z22	X23	Y23	Z23	X24	Y24	Z24	X25	Y25	Z25	X26	Y26	Z26	X27	Y27	Z27	X28	Y28	Z28	X29	Y29	Z29	X30	Y30	Z30	X31	Y31	Z31	X32	Y32	Z32	X33	Y33	Z33	X34	Y34	Z34	X35	Y35	Z35	X36	Y36	Z36	X37	Y37	Z37	X38	Y38	Z38	X39	Y39	Z39	X40	Y40	Z40	X41	Y41	Z41	X42	Y42	Z42	X43	Y43	Z43	X44	Y44	Z44	X45	Y45	Z45	

8	  0.080000	931.159203	1052.476799	-216.359420	754.265136	1091.132532	-366.993204	763.030109	1088.430423	-278.528740	857.154044	781.888255	-168.933381	940.244706	719.328305	-190.380665	883.593634	616.101302	-202.345871	847.661269	830.156032	-489.790652	954.082545	747.508585	-473.360875	931.963840	636.797000	-458.922199	780.659285	491.203331	-254.582724	728.822144	542.805011	-214.479457	604.872196	541.557979	-260.773440	505.545837	606.778172	-245.881539	517.349129	572.918816	-324.308138	1010.444594	411.642085	-405.323039	930.087165	308.473773	-426.159939	978.860568	222.478648	-369.142462	491.692655	658.714851	-320.532975	418.273077	454.706689	-262.077888	423.525171	534.335266	-203.246511	860.068513	 89.398983	-311.081736	1089.572689	 70.619460	-321.336894	1026.177734	 53.975427	-391.867439	883.085129	1535.285614	-522.637665	902.231435	1550.695020	-209.207171	965.168256	1480.157839	-341.701321	847.728440	1566.466876	-361.468188	800.749944	1503.117539	-527.578985	824.048842	1464.561045	-93.122885	737.498537	1431.522921	-103.684281	724.958769	1405.196133	-37.777599	716.465408	1351.474100	 15.720319	686.062340	1314.476943	-57.393844	787.370209	1431.257147	-598.281495	720.144044	1363.383593	-580.348987	723.147185	1325.694652	-646.783935	707.838153	1249.521873	-679.435426	683.459365	1235.917655	-594.687097	747.305369	1275.750852	 29.446336	921.609656	1196.735935	-27.694138	894.297782	1153.792356	 15.790704	756.962808	1165.784884	-654.228802	924.641383	1152.339584	-596.400735	901.812345	1090.777396	-611.940049	912.965494	1053.568492	-447.767409	
9	  0.090000	928.535168	1043.160512	-215.810885	750.474808	1084.767195	-369.158187	758.737411	1080.585532	-280.131556	868.605196	775.823518	-168.591978	957.228974	717.980831	-187.601523	910.977300	611.703901	-198.690642	843.545063	823.141375	-491.941426	946.620425	736.189555	-475.207932	922.462290	627.608559	-456.858107	815.722477	487.587674	-252.986698	763.458489	537.054887	-211.074087	639.074442	534.252354	-257.570734	537.958333	596.293307	-242.929260	551.060345	564.488148	-321.765792	989.927487	402.939775	-397.504055	899.759262	306.941575	-420.153460	944.653977	218.101245	-361.242078	521.562962	649.450459	-316.636600	456.797260	441.623036	-262.260499	459.216722	520.132736	-201.460388	813.690743	 90.387519	-305.933922	1044.174722	 67.850752	-318.491534	979.077403	 54.841398	-387.400604	887.575756	1525.932007	-524.166101	899.056597	1542.070006	-209.508916	965.544783	1469.498712	-340.866819	847.444856	1556.422003	-363.135670	805.099178	1493.489997	-531.198795	817.391162	1457.496682	-94.525672	731.003849	1424.732579	-107.910422	716.353802	1400.127222	-41.763634	704.589162	1348.729801	 13.158210	677.605992	1309.258273	-60.107764	795.726313	1417.866994	-601.540678	728.886807	1348.143420	-587.282571	736.289638	1309.882085	-653.269338	724.215030	1234.190228	-685.722955	696.494374	1219.404840	-602.058569	732.204037	1272.545125	 32.294079	907.097721	1186.016859	 -8.213409	875.031088	1145.024032	 33.786655	773.769822	1151.619641	-659.753921	938.422203	1140.279122	-594.897198	917.834174	1078.118835	-613.309833	909.875422	1044.384548	-447.844953	
10	  0.100000	926.001441	1033.870659	-216.018927	746.304666	1079.053718	-369.849793	754.627873	1073.956869	-280.791001	880.002972	772.318353	-168.206114	973.998172	720.101107	-185.426539	938.027933	611.549697	-196.082975	836.641311	817.644645	-492.961603	936.793082	727.563358	-476.684287	910.879691	620.371522	-455.290770	851.196792	485.872967	-251.972274	797.953134	532.533083	-208.543657	673.279233	526.103947	-255.173496	569.065013	583.434546	-239.980221	583.859789	553.853805	-319.184316	968.698579	395.601095	-392.827073	869.969098	306.510334	-416.336613	909.934034	214.824168	-356.368399	549.349421	637.345704	-312.633147	496.524304	425.218362	-262.194543	494.760876	502.565754	-199.752032	767.903465	 91.540701	-301.732370	998.851532	 65.861605	-315.739516	932.633307	 55.480169	-383.617886	892.040993	1517.766847	-526.013638	895.438673	1534.907945	-209.722541	965.772458	1460.319650	-339.744568	847.167465	1548.116038	-365.058809	809.721865	1484.162785	-535.350997	810.232396	1450.845668	-95.731101	724.087846	1417.689436	-112.342633	707.228552	1394.875053	-46.200824	692.801123	1345.667877	  9.987898	669.383361	1303.854832	-63.516573	804.597043	1405.463797	-604.147866	737.832377	1333.705580	-594.068074	749.679584	1294.666695	-658.944398	741.037138	1219.590325	-690.597230	709.598380	1203.697314	-608.206591	717.184326	1269.218615	 33.899101	891.802069	1176.222624	  9.509944	855.345109	1137.216694	 49.988752	791.296130	1138.792787	-663.280463	953.166431	1130.711115	-592.834076	934.753439	1067.994453	-612.881138	905.743242	1035.921885	-447.650561	
11	  0.110000	923.539856	1025.323417	-216.865386	742.063654	1074.521626	-368.728296	751.022898	1069.226096	-280.121200	891.564040	772.728302	-167.847964	990.452050	727.679374	-184.496233	964.260599	617.634379	-194.981601	826.153320	813.425858	-492.368769	923.918547	721.659325	-477.644923	896.293597	615.000614	-454.366743	886.765420	487.293118	-251.733592	831.706299	529.968044	-207.422953	707.022282	516.838930	-253.882315	598.376484	566.982849	-237.022108	615.305048	539.974744	-316.626929	945.814569	389.285199	-391.505187	840.786934	306.572970	-415.298365	874.307081	212.420044	-354.986457	574.126608	620.822842	-308.440136	538.373743	404.209701	-261.819902	530.486352	480.086730	-198.061956	722.930697	 92.626715	-299.252218	953.774716	 64.820681	-313.662836	887.220395	 55.667115	-381.317916	896.472084	1511.662881	-527.834554	891.239944	1529.984357	-209.881162	965.669992	1453.787309	-338.344394	846.956678	1542.606828	-367.176011	814.672556	1476.143032	-539.856771	802.436937	1445.416504	-96.981338	716.790572	1410.738782	-117.343247	697.503615	1389.890900	-51.475147	681.270855	1342.609720	  5.846939	661.510502	1298.615153	-67.860549	814.123189	1395.233638	-606.118821	746.874369	1321.369502	-600.065988	763.232363	1281.112298	-662.867044	758.125371	1206.757050	-693.099487	722.764422	1189.931702	-612.137559	702.509510	1266.139903	 33.672606	875.514252	1167.994088	 24.189259	835.244252	1131.047406	 63.179286	809.607005	1128.448006	-663.599490	968.976108	1125.685972	-589.336901	952.862209	1062.346589	-609.511872	900.818520	1028.744287	-447.243707	
